<svg xmlns="http://www.w3.org/2000/svg" viewBox="0 0 512 512" width="512" height="512">
  <circle cx="256" cy="256" r="246" fill="#f2f2f2" stroke="#000" stroke-width="10"/>
  <path d="M256 10C120.9 10 10 120.9 10 256c0 0 23.8 18 246 18s246-18 246-18C502 120.9 391.1 10 256 10z" fill="#ff1a1a"/>
  <path d="M256 502c135.1 0 246-110.9 246-246 0 0-23.8-18-246-18S10 256 10 256c0 135.1 110.9 246 246 246z" fill="#f2f2f2"/>
  <circle cx="256" cy="256" r="85" fill="#f2f2f2" stroke="#000" stroke-width="10"/>
  <circle cx="256" cy="256" r="50" fill="#f2f2f2" stroke="#000" stroke-width="10"/>
  <circle cx="256" cy="256" r="25" fill="#f2f2f2"/>
</svg>
